<svg width="75" height="75" viewBox="0 0 75 75" fill="none" xmlns="http://www.w3.org/2000/svg">
<path d="M59.5313 15.3439C56.6658 12.4505 53.2532 10.1563 49.4922 8.59505C45.7313 7.03379 41.6971 6.23668 37.625 6.25017C20.5625 6.25017 6.65625 20.1564 6.65625 37.2189C6.65625 42.6877 8.09375 48.0002 10.7813 52.6877L6.40625 68.7502L22.8125 64.4377C27.3438 66.9064 32.4375 68.2189 37.625 68.2189C54.6875 68.2189 68.5938 54.3127 68.5938 37.2502C68.5938 28.9689 65.375 21.1877 59.5313 15.3439ZM37.625 62.9689C33 62.9689 28.4688 61.7189 24.5 59.3752L23.5625 58.8127L13.8125 61.3752L16.4063 51.8752L15.7813 50.9064C13.2111 46.8035 11.8466 42.0604 11.8438 37.2189C11.8438 23.0314 23.4063 11.4689 37.5938 11.4689C44.4688 11.4689 50.9375 14.1564 55.7813 19.0314C58.1801 21.4185 60.081 24.2581 61.3738 27.3856C62.6667 30.513 63.3256 33.8661 63.3125 37.2502C63.375 51.4377 51.8125 62.9689 37.625 62.9689ZM51.75 43.7189C50.9688 43.3439 47.1563 41.4689 46.4688 41.1877C45.75 40.9377 45.25 40.8127 44.7188 41.5627C44.1875 42.3439 42.7188 44.0939 42.2813 44.5939C41.8438 45.1252 41.375 45.1877 40.5938 44.7814C39.8125 44.4064 37.3125 43.5627 34.375 40.9377C32.0625 38.8752 30.5313 36.3439 30.0625 35.5627C29.625 34.7814 30 34.3752 30.4063 33.9689C30.75 33.6252 31.1875 33.0627 31.5625 32.6252C31.9375 32.1877 32.0938 31.8439 32.3438 31.3439C32.5938 30.8127 32.4688 30.3752 32.2813 30.0002C32.0938 29.6252 30.5313 25.8127 29.9063 24.2502C29.2813 22.7502 28.625 22.9377 28.1563 22.9064H26.6563C26.125 22.9064 25.3125 23.0939 24.5938 23.8752C23.9063 24.6564 21.9063 26.5314 21.9063 30.3439C21.9063 34.1564 24.6875 37.8439 25.0625 38.3439C25.4375 38.8752 30.5313 46.6877 38.2813 50.0314C40.125 50.8439 41.5625 51.3127 42.6875 51.6564C44.5313 52.2502 46.2188 52.1564 47.5625 51.9689C49.0625 51.7502 52.1563 50.0939 52.7813 48.2814C53.4375 46.4689 53.4375 44.9377 53.2188 44.5939C53 44.2502 52.5313 44.0939 51.75 43.7189Z" fill="black"/>
</svg>
