<svg width="243" height="42" viewBox="0 0 243 42" fill="none" xmlns="http://www.w3.org/2000/svg">
<path d="M13.972 27.528H6.636L5.46 31H0.448L7.56 11.344H13.104L20.216 31H15.148L13.972 27.528ZM12.74 23.832L10.304 16.636L7.896 23.832H12.74ZM34.4205 19.184V23.16H22.1005V19.184H34.4205ZM45.7347 31.196C44.2974 31.196 43.0094 30.9627 41.8707 30.496C40.7321 30.0293 39.8174 29.3387 39.1267 28.424C38.4547 27.5093 38.1001 26.408 38.0627 25.12H43.1587C43.2334 25.848 43.4854 26.408 43.9147 26.8C44.3441 27.1733 44.9041 27.36 45.5947 27.36C46.3041 27.36 46.8641 27.2013 47.2747 26.884C47.6854 26.548 47.8907 26.0907 47.8907 25.512C47.8907 25.0267 47.7227 24.6253 47.3867 24.308C47.0694 23.9907 46.6681 23.7293 46.1827 23.524C45.7161 23.3187 45.0441 23.0853 44.1667 22.824C42.8974 22.432 41.8614 22.04 41.0587 21.648C40.2561 21.256 39.5654 20.6773 38.9867 19.912C38.4081 19.1467 38.1187 18.148 38.1187 16.916C38.1187 15.0867 38.7814 13.6587 40.1067 12.632C41.4321 11.5867 43.1587 11.064 45.2867 11.064C47.4521 11.064 49.1974 11.5867 50.5227 12.632C51.8481 13.6587 52.5574 15.096 52.6507 16.944H47.4707C47.4334 16.3093 47.2001 15.8147 46.7707 15.46C46.3414 15.0867 45.7907 14.9 45.1187 14.9C44.5401 14.9 44.0734 15.0587 43.7187 15.376C43.3641 15.6747 43.1867 16.1133 43.1867 16.692C43.1867 17.3267 43.4854 17.8213 44.0827 18.176C44.6801 18.5307 45.6134 18.9133 46.8827 19.324C48.1521 19.7533 49.1787 20.164 49.9627 20.556C50.7654 20.948 51.4561 21.5173 52.0347 22.264C52.6134 23.0107 52.9027 23.972 52.9027 25.148C52.9027 26.268 52.6134 27.2853 52.0347 28.2C51.4747 29.1147 50.6534 29.8427 49.5707 30.384C48.4881 30.9253 47.2094 31.196 45.7347 31.196ZM62.9613 31.224C61.4306 31.224 60.0493 30.8973 58.8173 30.244C57.6039 29.5907 56.6426 28.6573 55.9333 27.444C55.2426 26.2307 54.8973 24.812 54.8973 23.188C54.8973 21.5827 55.2519 20.1733 55.9613 18.96C56.6706 17.728 57.6413 16.7853 58.8733 16.132C60.1053 15.4787 61.4866 15.152 63.0173 15.152C64.5479 15.152 65.9293 15.4787 67.1613 16.132C68.3933 16.7853 69.3639 17.728 70.0733 18.96C70.7826 20.1733 71.1373 21.5827 71.1373 23.188C71.1373 24.7933 70.7733 26.212 70.0453 27.444C69.3359 28.6573 68.3559 29.5907 67.1053 30.244C65.8733 30.8973 64.4919 31.224 62.9613 31.224ZM62.9613 27.08C63.8759 27.08 64.6506 26.744 65.2853 26.072C65.9386 25.4 66.2653 24.4387 66.2653 23.188C66.2653 21.9373 65.9479 20.976 65.3133 20.304C64.6973 19.632 63.9319 19.296 63.0173 19.296C62.0839 19.296 61.3093 19.632 60.6933 20.304C60.0773 20.9573 59.7693 21.9187 59.7693 23.188C59.7693 24.4387 60.0679 25.4 60.6653 26.072C61.2813 26.744 62.0466 27.08 62.9613 27.08ZM78.4654 10.28V31H73.6774V10.28H78.4654ZM97.3632 15.376V31H92.5752V28.872C92.0899 29.5627 91.4272 30.1227 90.5872 30.552C89.7659 30.9627 88.8512 31.168 87.8432 31.168C86.6486 31.168 85.5939 30.9067 84.6792 30.384C83.7646 29.8427 83.0552 29.068 82.5512 28.06C82.0472 27.052 81.7952 25.8667 81.7952 24.504V15.376H86.5552V23.86C86.5552 24.9053 86.8259 25.7173 87.3672 26.296C87.9086 26.8747 88.6366 27.164 89.5512 27.164C90.4846 27.164 91.2219 26.8747 91.7632 26.296C92.3046 25.7173 92.5752 24.9053 92.5752 23.86V15.376H97.3632ZM109.51 26.94V31H107.074C105.338 31 103.985 30.58 103.014 29.74C102.044 28.8813 101.558 27.4907 101.558 25.568V19.352H99.6544V15.376H101.558V11.568H106.346V15.376H109.482V19.352H106.346V25.624C106.346 26.0907 106.458 26.4267 106.682 26.632C106.906 26.8373 107.28 26.94 107.802 26.94H109.51ZM114.585 13.752C113.745 13.752 113.055 13.5093 112.513 13.024C111.991 12.52 111.729 11.904 111.729 11.176C111.729 10.4293 111.991 9.81333 112.513 9.328C113.055 8.824 113.745 8.572 114.585 8.572C115.407 8.572 116.079 8.824 116.601 9.328C117.143 9.81333 117.413 10.4293 117.413 11.176C117.413 11.904 117.143 12.52 116.601 13.024C116.079 13.5093 115.407 13.752 114.585 13.752ZM116.965 15.376V31H112.177V15.376H116.965ZM127.547 31.224C126.017 31.224 124.635 30.8973 123.403 30.244C122.19 29.5907 121.229 28.6573 120.519 27.444C119.829 26.2307 119.483 24.812 119.483 23.188C119.483 21.5827 119.838 20.1733 120.547 18.96C121.257 17.728 122.227 16.7853 123.459 16.132C124.691 15.4787 126.073 15.152 127.603 15.152C129.134 15.152 130.515 15.4787 131.747 16.132C132.979 16.7853 133.95 17.728 134.659 18.96C135.369 20.1733 135.723 21.5827 135.723 23.188C135.723 24.7933 135.359 26.212 134.631 27.444C133.922 28.6573 132.942 29.5907 131.691 30.244C130.459 30.8973 129.078 31.224 127.547 31.224ZM127.547 27.08C128.462 27.08 129.237 26.744 129.871 26.072C130.525 25.4 130.851 24.4387 130.851 23.188C130.851 21.9373 130.534 20.976 129.899 20.304C129.283 19.632 128.518 19.296 127.603 19.296C126.67 19.296 125.895 19.632 125.279 20.304C124.663 20.9573 124.355 21.9187 124.355 23.188C124.355 24.4387 124.654 25.4 125.251 26.072C125.867 26.744 126.633 27.08 127.547 27.08ZM147.783 15.208C149.613 15.208 151.069 15.8053 152.151 17C153.253 18.176 153.803 19.8 153.803 21.872V31H149.043V22.516C149.043 21.4707 148.773 20.6587 148.231 20.08C147.69 19.5013 146.962 19.212 146.047 19.212C145.133 19.212 144.405 19.5013 143.863 20.08C143.322 20.6587 143.051 21.4707 143.051 22.516V31H138.263V15.376H143.051V17.448C143.537 16.7573 144.19 16.216 145.011 15.824C145.833 15.4133 146.757 15.208 147.783 15.208ZM163.487 31.224C162.124 31.224 160.911 30.9907 159.847 30.524C158.783 30.0573 157.943 29.4227 157.327 28.62C156.711 27.7987 156.365 26.884 156.291 25.876H161.023C161.079 26.4173 161.331 26.856 161.779 27.192C162.227 27.528 162.777 27.696 163.431 27.696C164.028 27.696 164.485 27.584 164.803 27.36C165.139 27.1173 165.307 26.8093 165.307 26.436C165.307 25.988 165.073 25.6613 164.607 25.456C164.14 25.232 163.384 24.9893 162.339 24.728C161.219 24.4667 160.285 24.196 159.539 23.916C158.792 23.6173 158.148 23.16 157.607 22.544C157.065 21.9093 156.795 21.06 156.795 19.996C156.795 19.1 157.037 18.288 157.523 17.56C158.027 16.8133 158.755 16.2253 159.707 15.796C160.677 15.3667 161.825 15.152 163.151 15.152C165.111 15.152 166.651 15.6373 167.771 16.608C168.909 17.5787 169.563 18.8667 169.731 20.472H165.307C165.232 19.9307 164.989 19.5013 164.579 19.184C164.187 18.8667 163.664 18.708 163.011 18.708C162.451 18.708 162.021 18.82 161.723 19.044C161.424 19.2493 161.275 19.5387 161.275 19.912C161.275 20.36 161.508 20.696 161.975 20.92C162.46 21.144 163.207 21.368 164.215 21.592C165.372 21.8907 166.315 22.1893 167.043 22.488C167.771 22.768 168.405 23.2347 168.947 23.888C169.507 24.5227 169.796 25.3813 169.815 26.464C169.815 27.3787 169.553 28.2 169.031 28.928C168.527 29.6373 167.789 30.1973 166.819 30.608C165.867 31.0187 164.756 31.224 163.487 31.224Z" fill="black"/>
<path d="M193.6 21.1C193.2 20.18 192.587 19.46 191.76 18.94C190.947 18.4067 189.987 18.14 188.88 18.14C187.84 18.14 186.907 18.38 186.08 18.86C185.253 19.34 184.6 20.0267 184.12 20.92C183.64 21.8 183.4 22.8267 183.4 24C183.4 25.1733 183.64 26.2067 184.12 27.1C184.6 27.9933 185.253 28.68 186.08 29.16C186.907 29.64 187.84 29.88 188.88 29.88C189.853 29.88 190.727 29.6733 191.5 29.26C192.287 28.8333 192.913 28.2333 193.38 27.46C193.86 26.6733 194.133 25.76 194.2 24.72H188.32V23.58H195.68V24.6C195.613 25.8267 195.28 26.94 194.68 27.94C194.08 28.9267 193.273 29.7067 192.26 30.28C191.26 30.8533 190.133 31.14 188.88 31.14C187.587 31.14 186.413 30.84 185.36 30.24C184.307 29.6267 183.473 28.78 182.86 27.7C182.26 26.6067 181.96 25.3733 181.96 24C181.96 22.6267 182.26 21.4 182.86 20.32C183.473 19.2267 184.307 18.38 185.36 17.78C186.413 17.1667 187.587 16.86 188.88 16.86C190.373 16.86 191.68 17.2333 192.8 17.98C193.92 18.7267 194.733 19.7667 195.24 21.1H193.6ZM199.645 22.02C199.951 21.34 200.418 20.8133 201.045 20.44C201.685 20.0667 202.465 19.88 203.385 19.88V21.34H203.005C201.991 21.34 201.178 21.6133 200.565 22.16C199.951 22.7067 199.645 23.62 199.645 24.9V31H198.245V20.08H199.645V22.02ZM210.271 31.16C209.244 31.16 208.317 30.9333 207.491 30.48C206.677 30.0133 206.031 29.36 205.551 28.52C205.084 27.6667 204.851 26.6733 204.851 25.54C204.851 24.4067 205.091 23.42 205.571 22.58C206.051 21.7267 206.704 21.0733 207.531 20.62C208.357 20.1533 209.284 19.92 210.311 19.92C211.337 19.92 212.264 20.1533 213.091 20.62C213.931 21.0733 214.584 21.7267 215.051 22.58C215.531 23.42 215.771 24.4067 215.771 25.54C215.771 26.66 215.531 27.6467 215.051 28.5C214.571 29.3533 213.911 30.0133 213.071 30.48C212.231 30.9333 211.297 31.16 210.271 31.16ZM210.271 29.94C210.991 29.94 211.657 29.78 212.271 29.46C212.884 29.1267 213.377 28.6333 213.751 27.98C214.137 27.3133 214.331 26.5 214.331 25.54C214.331 24.58 214.144 23.7733 213.771 23.12C213.397 22.4533 212.904 21.96 212.291 21.64C211.677 21.3067 211.011 21.14 210.291 21.14C209.571 21.14 208.904 21.3067 208.291 21.64C207.677 21.96 207.184 22.4533 206.811 23.12C206.451 23.7733 206.271 24.58 206.271 25.54C206.271 26.5 206.451 27.3133 206.811 27.98C207.184 28.6333 207.671 29.1267 208.271 29.46C208.884 29.78 209.551 29.94 210.271 29.94ZM227.783 20.08V31H226.383V29.08C226.063 29.76 225.569 30.28 224.903 30.64C224.236 31 223.489 31.18 222.663 31.18C221.356 31.18 220.289 30.78 219.463 29.98C218.636 29.1667 218.223 27.9933 218.223 26.46V20.08H219.603V26.3C219.603 27.4867 219.896 28.3933 220.483 29.02C221.083 29.6467 221.896 29.96 222.923 29.96C223.976 29.96 224.816 29.6267 225.443 28.96C226.069 28.2933 226.383 27.3133 226.383 26.02V20.08H227.783ZM232.359 22.48C232.706 21.7467 233.252 21.14 233.999 20.66C234.759 20.1667 235.659 19.92 236.699 19.92C237.686 19.92 238.572 20.1533 239.359 20.62C240.159 21.0733 240.779 21.7267 241.219 22.58C241.672 23.42 241.899 24.4 241.899 25.52C241.899 26.64 241.672 27.6267 241.219 28.48C240.779 29.3333 240.159 29.9933 239.359 30.46C238.572 30.9267 237.686 31.16 236.699 31.16C235.672 31.16 234.779 30.92 234.019 30.44C233.259 29.9467 232.706 29.3333 232.359 28.6V36.16H230.979V20.08H232.359V22.48ZM240.479 25.52C240.479 24.6133 240.299 23.8333 239.939 23.18C239.592 22.5133 239.112 22.0067 238.499 21.66C237.886 21.3133 237.192 21.14 236.419 21.14C235.672 21.14 234.986 21.32 234.359 21.68C233.746 22.04 233.259 22.5533 232.899 23.22C232.539 23.8867 232.359 24.66 232.359 25.54C232.359 26.42 232.539 27.1933 232.899 27.86C233.259 28.5267 233.746 29.04 234.359 29.4C234.986 29.76 235.672 29.94 236.419 29.94C237.192 29.94 237.886 29.7667 238.499 29.42C239.112 29.06 239.592 28.5467 239.939 27.88C240.299 27.2 240.479 26.4133 240.479 25.52Z" fill="black"/>
</svg>
